<svg xmlns="http://www.w3.org/2000/svg" viewBox="0 0 24 24"><title>Pipeline</title><g id="i" style="fill:none;stroke:var(--icon-line,#1a1320);stroke-width:1.25;stroke-linecap:round;stroke-linejoin:round"><path d="M1.3 9.5H3.1M1.9 11.9H3.5" style="fill:none;stroke:var(--icon-halo,none);stroke-width:3.9"/><path d="M4.6 14.6H19.4A2.4 2.4 0 0 1 21.8 17A2.4 2.4 0 0 1 19.4 19.4H4.6A2.4 2.4 0 0 1 2.2 17A2.4 2.4 0 0 1 4.6 14.6Z" style="fill:var(--icon-halo,none);stroke:var(--icon-halo,none);stroke-width:3.75"/><path d="M13.2 9.3H19.4V14.6H13.2Z" style="fill:var(--icon-halo,none);stroke:var(--icon-halo,none);stroke-width:3.75"/><path d="M7.7 7.1C9.4 7.1 10.6 9.5 10.6 11.3C10.6 13.2 9.4 14.4 7.7 14.4C6 14.4 4.8 13.2 4.8 11.3C4.8 9.5 6 7.1 7.7 7.1Z" style="fill:var(--icon-halo,none);stroke:var(--icon-halo,none);stroke-width:3.75"/><path d="M1.3 9.5H3.1M1.9 11.9H3.5" style="fill:none;stroke:var(--icon-accent,#19c6a6);stroke-width:1.4"/><path d="M4.6 14.6H19.4A2.4 2.4 0 0 1 21.8 17A2.4 2.4 0 0 1 19.4 19.4H4.6A2.4 2.4 0 0 1 2.2 17A2.4 2.4 0 0 1 4.6 14.6Z" style="fill:#5d676b"/><circle cx="4.7" cy="17" r="0.95" style="fill:#a9b3b6;stroke:none"/><circle cx="9.6" cy="17" r="0.95" style="fill:#a9b3b6;stroke:none"/><circle cx="14.4" cy="17" r="0.95" style="fill:#a9b3b6;stroke:none"/><circle cx="19.3" cy="17" r="0.95" style="fill:#a9b3b6;stroke:none"/><path d="M13.2 9.3H19.4V14.6H13.2Z" style="fill:#ff6a13"/><path d="M13.2 11.3H19.4"/><path d="M16.3 12.4V13.6" style="stroke:#c9480a;stroke-width:1.1"/><path d="M7.7 7.1C9.4 7.1 10.6 9.5 10.6 11.3C10.6 13.2 9.4 14.4 7.7 14.4C6 14.4 4.8 13.2 4.8 11.3C4.8 9.5 6 7.1 7.7 7.1Z" style="fill:#ffc41f"/><circle cx="6.7" cy="9.8" r="0.8" style="fill:#ffffff;stroke:none"/></g></svg>
