<svg xmlns="http://www.w3.org/2000/svg" viewBox="0 0 24 24"><title>Chum</title><g id="i" style="fill:none;stroke:var(--icon-line,#1a1320);stroke-width:1.25;stroke-linecap:round;stroke-linejoin:round"><path d="M16.8 13.4L18.6 9.6" style="fill:none;stroke:var(--icon-halo,none);stroke-width:4.9"/><circle cx="19.4" cy="6.4" r="3.3" style="fill:var(--icon-halo,none);stroke:var(--icon-halo,none);stroke-width:3.75"/><circle cx="18.4" cy="5.4" r="0.8" style="fill:var(--icon-halo,none);stroke:var(--icon-halo,none);stroke-width:3.75"/><path d="M8.6 8.2L9.6 4.8L11.6 7.6Z" style="fill:var(--icon-halo,none);stroke:var(--icon-halo,none);stroke-width:3.75"/><path d="M5.6 21.4C4.8 14 6.6 7.8 11.2 7.6C15.8 7.8 17.4 14 16.6 21.4Z" style="fill:var(--icon-halo,none);stroke:var(--icon-halo,none);stroke-width:3.75"/><path d="M8.6 21.4C8.2 18.4 9.4 16.6 11.2 16.6C13 16.6 14.2 18.4 13.8 21.4Z" style="fill:var(--icon-halo,none);stroke:var(--icon-halo,none);stroke-width:3.75"/><circle cx="12.8" cy="11.2" r="2.2" style="fill:var(--icon-halo,none);stroke:var(--icon-halo,none);stroke-width:3.5"/><circle cx="13.49" cy="11.4" r="1.1" style="fill:var(--icon-halo,none);stroke:var(--icon-halo,none);stroke-width:3.75"/><path d="M7.8 13.8H14.4Q13.8 16.2 11.1 16.2Q8.4 16.2 7.8 13.8Z" style="fill:var(--icon-halo,none);stroke:var(--icon-halo,none);stroke-width:3.75"/><path d="M8.4 13.95L9.08 15.05L9.75 13.95L10.43 15.05L11.1 13.95L11.78 15.05L12.45 13.95L13.13 15.05L13.8 13.95Z" style="fill:var(--icon-halo,none);stroke:var(--icon-halo,none);stroke-width:3.75"/><path d="M16.8 13.4L18.6 9.6" style="fill:none;stroke:var(--icon-line,#1a1320);stroke-width:2.4"/><circle cx="19.4" cy="6.4" r="3.3" style="fill:#3e4449"/><circle cx="18.4" cy="5.4" r="0.8" style="fill:#ffffff;stroke:none"/><path d="M8.6 8.2L9.6 4.8L11.6 7.6Z" style="fill:#5f8a3c"/><path d="M5.6 21.4C4.8 14 6.6 7.8 11.2 7.6C15.8 7.8 17.4 14 16.6 21.4Z" style="fill:#8db35c"/><path d="M8.6 21.4C8.2 18.4 9.4 16.6 11.2 16.6C13 16.6 14.2 18.4 13.8 21.4Z" style="fill:#efe8c8"/><circle cx="12.8" cy="11.2" r="2.2" style="fill:#ffffff;stroke-width:1"/><circle cx="13.49" cy="11.4" r="1.1" style="fill:var(--icon-line,#1a1320);stroke:none"/><path d="M7.8 13.8H14.4Q13.8 16.2 11.1 16.2Q8.4 16.2 7.8 13.8Z" style="fill:#3a1b24"/><path d="M8.4 13.95L9.08 15.05L9.75 13.95L10.43 15.05L11.1 13.95L11.78 15.05L12.45 13.95L13.13 15.05L13.8 13.95Z" style="fill:#ffffff;stroke:none"/></g></svg>
