<svg xmlns="http://www.w3.org/2000/svg" viewBox="0 0 24 24"><title>Golden Egg</title><g id="i" style="fill:none;stroke:var(--icon-line,#1a1320);stroke-width:1.25;stroke-linecap:round;stroke-linejoin:round"><path d="M12 2.8C16.2 2.8 19 9.6 19 14.2C19 18.6 16 21.4 12 21.4C8 21.4 5 18.6 5 14.2C5 9.6 7.8 2.8 12 2.8Z" style="fill:var(--icon-halo,none);stroke:var(--icon-halo,none);stroke-width:3.75"/><path d="M18.2 12.6C18.8 17.4 16 20.4 12 20.4C14.8 19.4 17 17 18.2 12.6Z" style="fill:var(--icon-halo,none);stroke:var(--icon-halo,none);stroke-width:3.75"/><path d="M8 7.8C8.8 6.4 9.8 5.6 10.6 5.8C10.8 7.4 9.2 11 8 12.2C7.4 11 7.4 9.2 8 7.8Z" style="fill:var(--icon-halo,none);stroke:var(--icon-halo,none);stroke-width:3.75"/><path d="M19.2 2Q19.93 3.87 21.8 4.6Q19.93 5.33 19.2 7.2Q18.47 5.33 16.6 4.6Q18.47 3.87 19.2 2Z" style="fill:var(--icon-halo,none);stroke:var(--icon-halo,none);stroke-width:3.75"/><path d="M12 2.8C16.2 2.8 19 9.6 19 14.2C19 18.6 16 21.4 12 21.4C8 21.4 5 18.6 5 14.2C5 9.6 7.8 2.8 12 2.8Z" style="fill:#ffc41f"/><path d="M18.2 12.6C18.8 17.4 16 20.4 12 20.4C14.8 19.4 17 17 18.2 12.6Z" style="fill:#e08e00;stroke:none"/><path d="M8 7.8C8.8 6.4 9.8 5.6 10.6 5.8C10.8 7.4 9.2 11 8 12.2C7.4 11 7.4 9.2 8 7.8Z" style="fill:#ffe68a;stroke:none"/><path d="M19.2 2Q19.93 3.87 21.8 4.6Q19.93 5.33 19.2 7.2Q18.47 5.33 16.6 4.6Q18.47 3.87 19.2 2Z" style="fill:var(--icon-accent,#ffffff)"/></g></svg>
