<svg xmlns="http://www.w3.org/2000/svg" viewBox="0 0 24 24"><title>Cohock</title><g id="i" style="fill:none;stroke:var(--icon-line,#1a1320);stroke-width:1.25;stroke-linecap:round;stroke-linejoin:round"><path d="M2.4 12.4L5.2 3.6A2 2 0 0 1 9 4.9L5.2 13.4Z" style="fill:var(--icon-halo,none);stroke:var(--icon-halo,none);stroke-width:3.75"/><path d="M3.6 21.4C3 12.8 6 7 12 7C18 7 20.8 12.8 20.2 21.4Z" style="fill:var(--icon-halo,none);stroke:var(--icon-halo,none);stroke-width:3.75"/><path d="M9.6 7.6L11 4.4L13.2 7.2Z" style="fill:var(--icon-halo,none);stroke:var(--icon-halo,none);stroke-width:3.75"/><circle cx="14.6" cy="11.4" r="2.4" style="fill:var(--icon-halo,none);stroke:var(--icon-halo,none);stroke-width:3.5"/><circle cx="15.25" cy="11.62" r="1.2" style="fill:var(--icon-halo,none);stroke:var(--icon-halo,none);stroke-width:3.75"/><circle cx="9.4" cy="11.8" r="1.5" style="fill:var(--icon-halo,none);stroke:var(--icon-halo,none);stroke-width:3.5"/><circle cx="9.8" cy="11.94" r="0.75" style="fill:var(--icon-halo,none);stroke:var(--icon-halo,none);stroke-width:3.75"/><path d="M6.4 14.4H18.2Q17.4 19 12.3 19Q7.2 19 6.4 14.4Z" style="fill:var(--icon-halo,none);stroke:var(--icon-halo,none);stroke-width:3.75"/><path d="M7.2 14.55L8.05 15.95L8.9 14.55L9.75 15.95L10.6 14.55L11.45 15.95L12.3 14.55L13.15 15.95L14 14.55L14.85 15.95L15.7 14.55L16.55 15.95L17.4 14.55Z" style="fill:var(--icon-halo,none);stroke:var(--icon-halo,none);stroke-width:3.75"/><path d="M2.4 12.4L5.2 3.6A2 2 0 0 1 9 4.9L5.2 13.4Z" style="fill:#b8793f"/><path d="M3.6 21.4C3 12.8 6 7 12 7C18 7 20.8 12.8 20.2 21.4Z" style="fill:#6e9b4a"/><path d="M9.6 7.6L11 4.4L13.2 7.2Z" style="fill:#5f8a3c"/><circle cx="14.6" cy="11.4" r="2.4" style="fill:#ffffff;stroke-width:1"/><circle cx="15.25" cy="11.62" r="1.2" style="fill:var(--icon-line,#1a1320);stroke:none"/><circle cx="9.4" cy="11.8" r="1.5" style="fill:#ffffff;stroke-width:1"/><circle cx="9.8" cy="11.94" r="0.75" style="fill:var(--icon-line,#1a1320);stroke:none"/><path d="M6.4 14.4H18.2Q17.4 19 12.3 19Q7.2 19 6.4 14.4Z" style="fill:#3a1b24"/><path d="M7.2 14.55L8.05 15.95L8.9 14.55L9.75 15.95L10.6 14.55L11.45 15.95L12.3 14.55L13.15 15.95L14 14.55L14.85 15.95L15.7 14.55L16.55 15.95L17.4 14.55Z" style="fill:#ffffff;stroke:none"/></g></svg>
