<svg xmlns="http://www.w3.org/2000/svg" viewBox="0 0 24 24"><title>Fish Stick</title><g id="i" style="fill:none;stroke:var(--icon-line,#1a1320);stroke-width:1.25;stroke-linecap:round;stroke-linejoin:round"><path d="M12 1.6V22.4" style="fill:none;stroke:var(--icon-halo,none);stroke-width:5.5"/><path d="M12 1.6V22.4" style="fill:none;stroke:var(--icon-halo,none);stroke-width:3.9"/><ellipse cx="12" cy="17.6" rx="6.6" ry="2.6" style="fill:var(--icon-halo,none);stroke:var(--icon-halo,none);stroke-width:3.75"/><circle cx="16" cy="17.2" r="1.1" style="fill:var(--icon-halo,none);stroke:var(--icon-halo,none);stroke-width:3.5"/><circle cx="16.3" cy="17.2" r="0.55" style="fill:var(--icon-halo,none);stroke:var(--icon-halo,none);stroke-width:3.75"/><ellipse cx="12" cy="12.2" rx="6.6" ry="2.6" style="fill:var(--icon-halo,none);stroke:var(--icon-halo,none);stroke-width:3.75"/><circle cx="16" cy="11.8" r="1.1" style="fill:var(--icon-halo,none);stroke:var(--icon-halo,none);stroke-width:3.5"/><circle cx="16.3" cy="11.8" r="0.55" style="fill:var(--icon-halo,none);stroke:var(--icon-halo,none);stroke-width:3.75"/><ellipse cx="12" cy="6.8" rx="6.6" ry="2.6" style="fill:var(--icon-halo,none);stroke:var(--icon-halo,none);stroke-width:3.75"/><circle cx="16" cy="6.4" r="1.1" style="fill:var(--icon-halo,none);stroke:var(--icon-halo,none);stroke-width:3.5"/><circle cx="16.3" cy="6.4" r="0.55" style="fill:var(--icon-halo,none);stroke:var(--icon-halo,none);stroke-width:3.75"/><path d="M12 1.6V22.4" style="fill:none;stroke:var(--icon-line,#1a1320);stroke-width:3"/><path d="M12 1.6V22.4" style="fill:none;stroke:#a9b3b6;stroke-width:1.4"/><ellipse cx="12" cy="17.6" rx="6.6" ry="2.6" style="fill:#8db35c"/><circle cx="16" cy="17.2" r="1.1" style="fill:#ffffff;stroke-width:1"/><circle cx="16.3" cy="17.2" r="0.55" style="fill:var(--icon-line,#1a1320);stroke:none"/><ellipse cx="12" cy="12.2" rx="6.6" ry="2.6" style="fill:#5f8a3c"/><circle cx="16" cy="11.8" r="1.1" style="fill:#ffffff;stroke-width:1"/><circle cx="16.3" cy="11.8" r="0.55" style="fill:var(--icon-line,#1a1320);stroke:none"/><ellipse cx="12" cy="6.8" rx="6.6" ry="2.6" style="fill:#8db35c"/><circle cx="16" cy="6.4" r="1.1" style="fill:#ffffff;stroke-width:1"/><circle cx="16.3" cy="6.4" r="0.55" style="fill:var(--icon-line,#1a1320);stroke:none"/></g></svg>
