<svg xmlns="http://www.w3.org/2000/svg" viewBox="0 0 24 24"><title>Vision</title><g id="i" style="fill:none;stroke:var(--icon-line,#1a1320);stroke-width:1.25;stroke-linecap:round;stroke-linejoin:round"><path d="M12 1.6V4.4M12 19.6V22.4M1.6 12H3.2M20.8 12H22.4" style="fill:none;stroke:var(--icon-halo,none);stroke-width:3.75"/><path d="M3 12C6.4 6 17.6 6 21 12C17.6 18 6.4 18 3 12Z" style="fill:var(--icon-halo,none);stroke:var(--icon-halo,none);stroke-width:3.75"/><circle cx="12" cy="12" r="4.1" style="fill:var(--icon-halo,none);stroke:var(--icon-halo,none);stroke-width:3.75"/><circle cx="12" cy="12" r="1.9" style="fill:var(--icon-halo,none);stroke:var(--icon-halo,none);stroke-width:3.75"/><circle cx="10.6" cy="10.6" r="0.9" style="fill:var(--icon-halo,none);stroke:var(--icon-halo,none);stroke-width:3.75"/><path d="M5.6 9.2C8.6 6.6 15.4 6.6 18.4 9.2C15.6 7.9 8.4 7.9 5.6 9.2Z" style="fill:var(--icon-halo,none);stroke:var(--icon-halo,none);stroke-width:3.75"/><path d="M12 1.6V4.4M12 19.6V22.4M1.6 12H3.2M20.8 12H22.4" style="fill:none;stroke:var(--icon-line,#1a1320);stroke-width:1.25"/><path d="M3 12C6.4 6 17.6 6 21 12C17.6 18 6.4 18 3 12Z" style="fill:#ffffff"/><circle cx="12" cy="12" r="4.1" style="fill:var(--icon-accent,#19c6a6)"/><circle cx="12" cy="12" r="1.9" style="fill:var(--icon-line,#1a1320);stroke:none"/><circle cx="10.6" cy="10.6" r="0.9" style="fill:#ffffff;stroke:none"/><path d="M5.6 9.2C8.6 6.6 15.4 6.6 18.4 9.2C15.6 7.9 8.4 7.9 5.6 9.2Z" style="fill:#ff3d9a;stroke:none"/></g></svg>
