<svg xmlns="http://www.w3.org/2000/svg" viewBox="0 0 24 24"><title>Steelhead</title><g id="i" style="fill:none;stroke:var(--icon-line,#1a1320);stroke-width:1.25;stroke-linecap:round;stroke-linejoin:round"><path d="M3.6 21.6C3.4 15.4 7 11.8 12 11.8C17 11.8 20.6 15.4 20.4 21.6Z" style="fill:var(--icon-halo,none);stroke:var(--icon-halo,none);stroke-width:3.75"/><circle cx="12" cy="7.4" r="5.4" style="fill:var(--icon-halo,none);stroke:var(--icon-halo,none);stroke-width:3.75"/><path d="M9 5.8A3.4 3.4 0 0 1 11 4.2" style="fill:none;stroke:var(--icon-halo,none);stroke-width:3.9"/><circle cx="14.4" cy="9.2" r="0.9" style="fill:var(--icon-halo,none);stroke:var(--icon-halo,none);stroke-width:3.75"/><circle cx="15.8" cy="15.4" r="1.8" style="fill:var(--icon-halo,none);stroke:var(--icon-halo,none);stroke-width:3.5"/><circle cx="16.12" cy="15.72" r="0.9" style="fill:var(--icon-halo,none);stroke:var(--icon-halo,none);stroke-width:3.75"/><circle cx="8.4" cy="15.6" r="1.3" style="fill:var(--icon-halo,none);stroke:var(--icon-halo,none);stroke-width:3.5"/><circle cx="8.63" cy="15.83" r="0.65" style="fill:var(--icon-halo,none);stroke:var(--icon-halo,none);stroke-width:3.75"/><path d="M9.6 18.2Q12 20 14.6 18.2Z" style="fill:var(--icon-halo,none);stroke:var(--icon-halo,none);stroke-width:3.75"/><path d="M3.6 21.6C3.4 15.4 7 11.8 12 11.8C17 11.8 20.6 15.4 20.4 21.6Z" style="fill:#8db35c"/><circle cx="12" cy="7.4" r="5.4" style="fill:var(--icon-accent,#e2ff1f)"/><path d="M9 5.8A3.4 3.4 0 0 1 11 4.2" style="fill:none;stroke:#ffffff;stroke-width:1.4"/><circle cx="14.4" cy="9.2" r="0.9" style="fill:rgba(255,255,255,.7);stroke:none"/><circle cx="15.8" cy="15.4" r="1.8" style="fill:#ffffff;stroke-width:1"/><circle cx="16.12" cy="15.72" r="0.9" style="fill:var(--icon-line,#1a1320);stroke:none"/><circle cx="8.4" cy="15.6" r="1.3" style="fill:#ffffff;stroke-width:1"/><circle cx="8.63" cy="15.83" r="0.65" style="fill:var(--icon-line,#1a1320);stroke:none"/><path d="M9.6 18.2Q12 20 14.6 18.2Z" style="fill:#3a1b24"/></g></svg>
