<svg xmlns="http://www.w3.org/2000/svg" viewBox="0 0 24 24"><title>Chum</title><g id="i" fill="none" stroke="currentColor" stroke-width="2" stroke-linecap="round" stroke-linejoin="round"><path d="M3.7 20.9C3.6 19.9 3.2 16.9 3.4 15C3.5 13.1 3.9 10.8 4.7 9.5C5.5 8.3 7 7.6 8.1 7.7C9.3 7.7 10.8 8.4 11.5 9.6C12.3 10.9 12.6 13 12.6 14.9C12.7 16.8 12.1 20 12 21"/><path d="M3.4 21h9.2"/><path fill="currentColor" stroke="none" d="M7.9 12a1.1 1.1 0 1 0 2.2 0a1.1 1.1 0 1 0 -2.2 0Z"/><path d="M7.4 10l3.1.8"/><path d="M8 16.4q1.6-.9 3.2.2"/><path d="M12.2 13.6 15.4 9.4"/><path d="M21.5 6C21.8 6.4 21.8 6.9 21.4 7.3C21.1 7.7 20.2 8 19.4 8.2C18.6 8.3 17.4 8.3 16.6 8.2C15.9 8 15.1 7.6 14.8 7.2C14.5 6.8 14.5 6.2 14.9 5.9C15.3 5.5 16.2 5.2 17 5C17.8 4.9 19 4.9 19.7 5.1C20.5 5.2 21.2 5.7 21.5 6Z"/><path d="M14.8 8c.8 2 3 2.8 5.6 1.8"/></g></svg>
