<svg xmlns="http://www.w3.org/2000/svg" viewBox="0 0 24 24"><title>Cohozuna</title><g id="i" style="fill:none;stroke:var(--icon-line,#1a1320);stroke-width:1.25;stroke-linecap:round;stroke-linejoin:round"><path d="M7.4 6.6L8.4 2.2L10.6 5.2L12 1.4L13.4 5.2L15.6 2.2L16.6 6.6Z" style="fill:var(--icon-halo,none);stroke:var(--icon-halo,none);stroke-width:3.75"/><path d="M2.8 21.6C1.8 12.4 5.4 5.2 12 5.2C18.6 5.2 22.2 12.4 21.2 21.6Z" style="fill:var(--icon-halo,none);stroke:var(--icon-halo,none);stroke-width:3.75"/><circle cx="8.6" cy="10" r="1.7" style="fill:var(--icon-halo,none);stroke:var(--icon-halo,none);stroke-width:3.5"/><circle cx="9.06" cy="10.31" r="0.85" style="fill:var(--icon-halo,none);stroke:var(--icon-halo,none);stroke-width:3.75"/><circle cx="15.4" cy="10" r="1.7" style="fill:var(--icon-halo,none);stroke:var(--icon-halo,none);stroke-width:3.5"/><circle cx="14.94" cy="10.31" r="0.85" style="fill:var(--icon-halo,none);stroke:var(--icon-halo,none);stroke-width:3.75"/><path d="M4.8 13.2H19.2Q18.6 20.2 12 20.2Q5.4 20.2 4.8 13.2Z" style="fill:var(--icon-halo,none);stroke:var(--icon-halo,none);stroke-width:3.75"/><path d="M5.6 13.35L6.51 15.15L7.43 13.35L8.34 15.15L9.26 13.35L10.17 15.15L11.09 13.35L12 15.15L12.91 13.35L13.83 15.15L14.74 13.35L15.66 15.15L16.57 13.35L17.49 15.15L18.4 13.35Z" style="fill:var(--icon-halo,none);stroke:var(--icon-halo,none);stroke-width:3.75"/><path d="M8.4 19.9L9.3 18.5L10.2 19.9L11.1 18.5L12 19.9L12.9 18.5L13.8 19.9L14.7 18.5L15.6 19.9Z" style="fill:var(--icon-halo,none);stroke:var(--icon-halo,none);stroke-width:3.75"/><path d="M7.4 6.6L8.4 2.2L10.6 5.2L12 1.4L13.4 5.2L15.6 2.2L16.6 6.6Z" style="fill:#ffc41f"/><path d="M2.8 21.6C1.8 12.4 5.4 5.2 12 5.2C18.6 5.2 22.2 12.4 21.2 21.6Z" style="fill:#ff7a6b"/><circle cx="8.6" cy="10" r="1.7" style="fill:#ffffff;stroke-width:1"/><circle cx="9.06" cy="10.31" r="0.85" style="fill:var(--icon-line,#1a1320);stroke:none"/><circle cx="15.4" cy="10" r="1.7" style="fill:#ffffff;stroke-width:1"/><circle cx="14.94" cy="10.31" r="0.85" style="fill:var(--icon-line,#1a1320);stroke:none"/><path d="M4.8 13.2H19.2Q18.6 20.2 12 20.2Q5.4 20.2 4.8 13.2Z" style="fill:#3a1b24"/><path d="M5.6 13.35L6.51 15.15L7.43 13.35L8.34 15.15L9.26 13.35L10.17 15.15L11.09 13.35L12 15.15L12.91 13.35L13.83 15.15L14.74 13.35L15.66 15.15L16.57 13.35L17.49 15.15L18.4 13.35Z" style="fill:#ffffff;stroke:none"/><path d="M8.4 19.9L9.3 18.5L10.2 19.9L11.1 18.5L12 19.9L12.9 18.5L13.8 19.9L14.7 18.5L15.6 19.9Z" style="fill:#ffffff;stroke:none"/></g></svg>
