<svg xmlns="http://www.w3.org/2000/svg" viewBox="0 0 24 24"><title>Follow</title><g id="i" fill="none" stroke="currentColor" stroke-width="2" stroke-linecap="round" stroke-linejoin="round"><path d="M20.3 12C20.3 13.5 19.5 15.4 18.4 16.4C17.4 17.5 15.5 18.3 14 18.3C12.5 18.3 10.4 17.7 9.4 16.6C8.3 15.6 7.7 13.5 7.7 12C7.7 10.5 8.4 8.5 9.4 7.4C10.5 6.3 12.5 5.6 14 5.7C15.5 5.7 17.5 6.4 18.5 7.5C19.6 8.5 20.3 10.5 20.3 12Z"/><path d="M14 2.6v3M14 18.4v3M20.4 12h2.4"/><path stroke="none" style="fill:var(--icon-accent,currentColor)" d="M16.1 12C16.1 12.5 15.6 13.2 15.2 13.5C14.8 13.8 14 14 13.6 13.9C13.1 13.8 12.6 13.2 12.4 12.8C12.2 12.3 12.1 11.7 12.3 11.2C12.5 10.7 13 10.1 13.5 10C14 9.8 14.8 10.1 15.2 10.5C15.7 10.8 16.1 11.5 16.1 12Z"/><path d="M1.8 8.8h3.4M1.4 12h4.4M1.8 15.2h3.4"/></g></svg>
